<svg width="108" height="24" viewBox="0 0 108 24" fill="none" xmlns="http://www.w3.org/2000/svg">
<rect width="23" height="24" rx="7" fill="#0E1218"/>
<path d="M5.4624 5.35852H13.8838C14.8347 5.35852 15.6056 6.1294 15.6056 7.08033V7.08033C15.6056 8.03126 14.8347 8.80214 13.8838 8.80214H8.90602C7.00417 8.80214 5.4624 7.26038 5.4624 5.35852V5.35852Z" fill="white"/>
<path d="M5.4624 11.9994C5.4624 11.0485 6.23328 10.2776 7.18421 10.2776H10.0197C10.9706 10.2776 11.7415 11.0485 11.7415 11.9994V11.9994C11.7415 12.9503 10.9706 13.7212 10.0197 13.7212H7.18421C6.23328 13.7212 5.4624 12.9503 5.4624 11.9994V11.9994Z" fill="white"/>
<path d="M5.4624 15.3617C5.4624 15.2712 5.53582 15.1978 5.62638 15.1978H14.258C16.0693 15.1978 17.5376 16.6661 17.5376 18.4774V18.4774C17.5376 18.568 17.4642 18.6414 17.3736 18.6414H8.74204C6.93075 18.6414 5.4624 17.173 5.4624 15.3617V15.3617Z" fill="white"/>
<path d="M37.326 17L33.924 7.2H35.87L37.732 12.716C37.8067 12.912 37.8767 13.1267 37.942 13.36C38.0073 13.5933 38.0727 13.8313 38.138 14.074C38.2033 14.3167 38.264 14.5453 38.32 14.76C38.376 14.9747 38.4227 15.166 38.46 15.334L37.928 15.32C38.0213 15.0213 38.1147 14.7227 38.208 14.424C38.3013 14.1253 38.3993 13.8313 38.502 13.542C38.614 13.2527 38.726 12.9727 38.838 12.702L40.518 8.74H42.142L43.78 12.688C43.892 12.9773 44.004 13.2713 44.116 13.57C44.2373 13.8593 44.34 14.1487 44.424 14.438C44.5173 14.718 44.592 14.9793 44.648 15.222L44.158 15.292C44.1953 15.124 44.2373 14.956 44.284 14.788C44.3307 14.6107 44.3727 14.4333 44.41 14.256C44.4567 14.0787 44.5033 13.906 44.55 13.738C44.606 13.5607 44.662 13.3787 44.718 13.192C44.774 13.0053 44.8347 12.8233 44.9 12.646L46.944 7.2H48.834L45.11 17H43.794L41.12 10.7L41.386 10.756L38.754 17H37.326ZM50.0972 17L54.6332 7.2H56.5092L61.0172 17H59.0852L56.2292 10.826C56.1545 10.658 56.0752 10.476 55.9912 10.28C55.9072 10.084 55.8232 9.888 55.7392 9.692C55.6645 9.496 55.5898 9.3 55.5152 9.104C55.4405 8.89867 55.3752 8.70267 55.3192 8.516L55.7532 8.502C55.6878 8.70733 55.6178 8.91267 55.5432 9.118C55.4685 9.32333 55.3892 9.524 55.3052 9.72C55.2212 9.916 55.1372 10.112 55.0532 10.308C54.9692 10.4947 54.8852 10.6813 54.8012 10.868L51.9592 17H50.0972ZM52.1272 14.858L52.7852 13.276H58.2312L58.6092 14.858H52.1272ZM64.072 17V7.2H65.892V15.32H71.828V17H64.072ZM75.5154 17V7.2H77.3354V15.32H83.2714V17H75.5154ZM86.8083 17V7.2H94.6343V8.852H88.6003V15.348H94.6903V17H86.8083ZM87.7603 12.8V11.176H93.9203V12.8H87.7603ZM101.14 17V8.88H97.6399V7.2H106.558V8.88H102.96V17H101.14Z" fill="#0E1218"/>
</svg>
