<svg width="109" height="24" viewBox="0 0 109 24" fill="none" xmlns="http://www.w3.org/2000/svg">
<rect width="23" height="24" rx="7" fill="url(#paint0_linear_896_1226)"/>
<path d="M5.4624 5.35864H13.8838C14.8347 5.35864 15.6056 6.12952 15.6056 7.08045C15.6056 8.03138 14.8347 8.80226 13.8838 8.80226H8.90602C7.00417 8.80226 5.4624 7.2605 5.4624 5.35864Z" fill="url(#paint1_linear_896_1226)"/>
<path d="M5.4624 11.9994C5.4624 11.0485 6.23328 10.2776 7.18421 10.2776H10.0197C10.9706 10.2776 11.7415 11.0485 11.7415 11.9994C11.7415 12.9503 10.9706 13.7212 10.0197 13.7212H7.18421C6.23328 13.7212 5.4624 12.9503 5.4624 11.9994Z" fill="#1A242D"/>
<path d="M5.4624 15.362C5.4624 15.2714 5.53582 15.198 5.62638 15.198H14.258C16.0693 15.198 17.5376 16.6663 17.5376 18.4776C17.5376 18.5682 17.4642 18.6416 17.3736 18.6416H8.74204C6.93075 18.6416 5.4624 17.1733 5.4624 15.362Z" fill="url(#paint2_linear_896_1226)"/>
<path d="M35.156 17V7.2H36.976V15.32H42.912V17H35.156ZM46.449 17V7.2H54.275V8.852H48.241V15.348H54.331V17H46.449ZM47.401 12.8V11.176H53.561V12.8H47.401ZM58.3025 17V7.2H63.0485C63.8978 7.2 64.6538 7.326 65.3165 7.578C65.9885 7.83 66.5532 8.18 67.0105 8.628C67.4678 9.076 67.8132 9.59867 68.0465 10.196C68.2798 10.784 68.3965 11.4187 68.3965 12.1C68.3965 12.7907 68.2798 13.43 68.0465 14.018C67.8132 14.606 67.4632 15.124 66.9965 15.572C66.5392 16.02 65.9792 16.37 65.3165 16.622C64.6538 16.874 63.8978 17 63.0485 17H58.3025ZM60.1225 15.586L59.9825 15.32H62.9785C63.5852 15.32 64.1078 15.236 64.5465 15.068C64.9852 14.9 65.3492 14.6713 65.6385 14.382C65.9278 14.0927 66.1425 13.7567 66.2825 13.374C66.4225 12.982 66.4925 12.5573 66.4925 12.1C66.4925 11.652 66.4225 11.2367 66.2825 10.854C66.1425 10.462 65.9278 10.1213 65.6385 9.832C65.3492 9.53333 64.9852 9.3 64.5465 9.132C64.1078 8.964 63.5852 8.88 62.9785 8.88H59.9405L60.1225 8.642V15.586ZM76.9577 17.14C76.1737 17.14 75.441 17.028 74.7597 16.804C74.0784 16.5707 73.4764 16.2393 72.9537 15.81C72.431 15.3807 72.025 14.8533 71.7357 14.228C71.4464 13.6027 71.3017 12.8887 71.3017 12.086C71.3017 11.3767 71.451 10.7187 71.7497 10.112C72.0484 9.496 72.459 8.964 72.9817 8.516C73.5137 8.05867 74.1344 7.704 74.8437 7.452C75.5624 7.2 76.3324 7.074 77.1537 7.074C77.8164 7.074 78.4324 7.15333 79.0017 7.312C79.5804 7.46133 80.089 7.662 80.5277 7.914C80.9664 8.166 81.3164 8.43667 81.5777 8.726L80.4297 9.986C80.131 9.74333 79.809 9.53333 79.4637 9.356C79.1277 9.17867 78.7637 9.03867 78.3717 8.936C77.9797 8.824 77.569 8.768 77.1397 8.768C76.589 8.768 76.071 8.852 75.5857 9.02C75.1097 9.188 74.6944 9.42133 74.3397 9.72C73.985 10.0187 73.705 10.3687 73.4997 10.77C73.3037 11.1713 73.2057 11.61 73.2057 12.086C73.2057 12.646 73.3084 13.136 73.5137 13.556C73.7284 13.976 74.0177 14.326 74.3817 14.606C74.7457 14.886 75.161 15.096 75.6277 15.236C76.1037 15.376 76.5937 15.446 77.0977 15.446C77.5924 15.446 78.0497 15.3947 78.4697 15.292C78.899 15.1893 79.2677 15.0447 79.5757 14.858C79.893 14.6713 80.1404 14.452 80.3177 14.2C80.495 13.948 80.5744 13.6727 80.5557 13.374L80.5417 13.136L80.8077 13.514H77.0557V11.904H82.4037C82.4224 12.0347 82.4364 12.1607 82.4457 12.282C82.455 12.394 82.4597 12.492 82.4597 12.576C82.4597 12.66 82.4597 12.7253 82.4597 12.772C82.4597 13.4813 82.3244 14.1113 82.0537 14.662C81.7924 15.2033 81.4144 15.656 80.9197 16.02C80.425 16.384 79.8417 16.664 79.1697 16.86C78.4977 17.0467 77.7604 17.14 76.9577 17.14ZM85.988 17V7.2H93.814V8.852H87.78V15.348H93.87V17H85.988ZM86.94 12.8V11.176H93.1V12.8H86.94ZM97.8415 17V7.2H103.148C103.792 7.2 104.361 7.33533 104.856 7.606C105.35 7.86733 105.742 8.23133 106.032 8.698C106.33 9.15533 106.48 9.678 106.48 10.266C106.48 10.8633 106.321 11.4047 106.004 11.89C105.696 12.366 105.28 12.7487 104.758 13.038C104.235 13.318 103.656 13.458 103.022 13.458H99.6195V17H97.8415ZM104.8 17L101.706 12.576L103.624 12.226L106.998 17.014L104.8 17ZM99.6195 11.876H102.896C103.204 11.876 103.488 11.806 103.75 11.666C104.011 11.526 104.216 11.3393 104.366 11.106C104.515 10.8633 104.59 10.5973 104.59 10.308C104.59 10.028 104.51 9.78067 104.352 9.566C104.193 9.342 103.974 9.16467 103.694 9.034C103.423 8.90333 103.124 8.838 102.798 8.838H99.6195V11.876Z" fill="url(#paint3_linear_896_1226)"/>
<defs>
<linearGradient id="paint0_linear_896_1226" x1="11.5" y1="0" x2="11.5" y2="24" gradientUnits="userSpaceOnUse">
<stop stop-color="white"/>
<stop offset="1" stop-color="#8F8F8F"/>
</linearGradient>
<linearGradient id="paint1_linear_896_1226" x1="10.534" y1="5.35864" x2="10.534" y2="8.80226" gradientUnits="userSpaceOnUse">
<stop stop-color="#0E1218"/>
<stop offset="1" stop-color="#303F55"/>
</linearGradient>
<linearGradient id="paint2_linear_896_1226" x1="11.5" y1="15.198" x2="11.5" y2="18.6416" gradientUnits="userSpaceOnUse">
<stop stop-color="#303F55"/>
<stop offset="1" stop-color="#0F1319"/>
</linearGradient>
<linearGradient id="paint3_linear_896_1226" x1="71" y1="3" x2="71" y2="21" gradientUnits="userSpaceOnUse">
<stop stop-color="white"/>
<stop offset="1" stop-color="#929292"/>
</linearGradient>
</defs>
</svg>
