<svg width="441" height="109" viewBox="0 0 441 109" fill="none" xmlns="http://www.w3.org/2000/svg">
<g clip-path="url(#clip0_1499_33)">
<path d="M72.9541 0H31.9174C14.2899 0 0 14.2336 0 31.7917V77.2083C0 94.7664 14.2899 109 31.9174 109H72.9541C90.5816 109 104.872 94.7664 104.872 77.2083V31.7917C104.872 14.2336 90.5816 0 72.9541 0Z" fill="url(#paint0_linear_1499_33)"/>
<path d="M44.7075 82V43.7676C44.7075 39.4506 48.2238 35.9508 52.5614 35.9508C56.899 35.9508 60.4153 39.4506 60.4153 43.7676V66.3663C60.4153 75.0005 53.3827 82 44.7075 82Z" fill="white"/>
<path d="M29.8538 82C25.5164 82 22 78.5003 22 74.1831V61.3103C22 56.9933 25.5164 53.4935 29.8538 53.4935C34.1913 53.4935 37.7076 56.9933 37.7076 61.3103V74.1831C37.7076 78.5003 34.1913 82 29.8538 82Z" fill="white"/>
<path d="M67.6294 82C67.2162 82 66.8813 81.6667 66.8813 81.2555V42.0688C66.8813 33.8457 73.5789 27.1797 81.8409 27.1797C82.2542 27.1797 82.589 27.513 82.589 27.9243V67.1107C82.589 75.3338 75.8915 82 67.6294 82Z" fill="white"/>
<path d="M170.465 79V33.5H178.915V71.2H207.19V79H170.465ZM224.293 79V33.5H261.343V41.17H232.613V71.33H261.603V79H224.293ZM228.713 59.5V51.96H258.028V59.5H228.713ZM295.603 79L275.128 33.5H284.358L295.538 59.175C295.841 59.9117 296.231 60.8433 296.708 61.97C297.228 63.0533 297.769 64.245 298.333 65.545C298.939 66.845 299.503 68.1667 300.023 69.51C300.543 70.81 300.998 72.0233 301.388 73.15H299.243C299.719 71.8067 300.283 70.3117 300.933 68.665C301.583 66.975 302.254 65.3283 302.948 63.725C303.641 62.0783 304.269 60.5833 304.833 59.24L315.233 33.5H324.593L304.573 79H295.603ZM339.757 79V33.5H376.807V41.17H348.077V71.33H377.067V79H339.757ZM344.177 59.5V51.96H373.492V59.5H344.177ZM396.442 79V33.5H404.892V71.2H433.167V79H396.442Z" fill="#0E1218"/>
</g>
<defs>
<linearGradient id="paint0_linear_1499_33" x1="105" y1="61.5" x2="-5.32266e-06" y2="61.5" gradientUnits="userSpaceOnUse">
<stop stop-color="#0E1218"/>
<stop offset="1" stop-color="#2D343F"/>
</linearGradient>
<clipPath id="clip0_1499_33">
<rect width="441" height="109" fill="white"/>
</clipPath>
</defs>
</svg>
