<svg width="441" height="109" viewBox="0 0 441 109" fill="none" xmlns="http://www.w3.org/2000/svg">
<g clip-path="url(#clip0_1499_40)">
<path d="M72.9541 0H31.9174C14.2899 0 0 14.2336 0 31.7917V77.2083C0 94.7664 14.2899 109 31.9174 109H72.9541C90.5816 109 104.872 94.7664 104.872 77.2083V31.7917C104.872 14.2336 90.5816 0 72.9541 0Z" fill="#FAFAFA"/>
<path d="M44.8079 81.8779V43.6456C44.8079 39.3286 48.3242 35.8288 52.6617 35.8288C56.9993 35.8288 60.5156 39.3286 60.5156 43.6456V66.2442C60.5156 74.8784 53.483 81.8779 44.8079 81.8779Z" fill="#0E1218"/>
<path d="M29.9542 81.8779C25.6167 81.8779 22.1003 78.3782 22.1003 74.0611V61.1882C22.1003 56.8712 25.6167 53.3714 29.9542 53.3714C34.2916 53.3714 37.808 56.8712 37.808 61.1882V74.0611C37.808 78.3782 34.2916 81.8779 29.9542 81.8779Z" fill="#0E1218"/>
<path d="M67.7298 81.8779C67.3165 81.8779 66.9817 81.5446 66.9817 81.1335V41.9467C66.9817 33.7236 73.6792 27.0577 81.9413 27.0577C82.3545 27.0577 82.6893 27.3909 82.6893 27.8022V66.9887C82.6893 75.2118 75.9918 81.8779 67.7298 81.8779Z" fill="#0E1218"/>
<path d="M170.465 79V33.5H178.915V71.2H207.19V79H170.465ZM224.293 79V33.5H261.343V41.17H232.613V71.33H261.603V79H224.293ZM228.713 59.5V51.96H258.028V59.5H228.713ZM295.603 79L275.128 33.5H284.358L295.538 59.175C295.841 59.9117 296.231 60.8433 296.708 61.97C297.228 63.0533 297.769 64.245 298.333 65.545C298.939 66.845 299.503 68.1667 300.023 69.51C300.543 70.81 300.998 72.0233 301.388 73.15H299.243C299.719 71.8067 300.283 70.3117 300.933 68.665C301.583 66.975 302.254 65.3283 302.948 63.725C303.641 62.0783 304.269 60.5833 304.833 59.24L315.233 33.5H324.593L304.573 79H295.603ZM339.757 79V33.5H376.807V41.17H348.077V71.33H377.067V79H339.757ZM344.177 59.5V51.96H373.492V59.5H344.177ZM396.442 79V33.5H404.892V71.2H433.167V79H396.442Z" fill="#FAFAFA"/>
</g>
<defs>
<clipPath id="clip0_1499_40">
<rect width="441" height="109" fill="white"/>
</clipPath>
</defs>
</svg>
