<svg width="43" height="14" viewBox="0 0 43 14" fill="none" xmlns="http://www.w3.org/2000/svg">
<path d="M30.8806 1.39509C29.9142 1.04984 28.8926 0.876588 27.8639 0.8835C24.5375 0.8835 22.1882 2.5263 22.1716 4.88451C22.1508 6.61699 23.841 7.5933 25.1196 8.17215C26.4315 8.76731 26.8702 9.14234 26.866 9.67431C26.8577 10.4835 25.8182 10.8504 24.8514 10.8504C23.5229 10.8504 22.7973 10.669 21.6809 10.2144L21.2672 10.0249L20.7952 12.7398C21.604 13.07 23.0614 13.3533 24.5666 13.3777C28.103 13.3777 30.4149 11.7451 30.4419 9.2361C30.4711 7.85215 29.5563 6.80655 27.6311 5.94234C26.4606 5.38183 25.735 5.0068 25.735 4.43814C25.735 3.9347 26.3566 3.39662 27.656 3.39662C28.5208 3.3761 29.3803 3.53517 30.1779 3.86337L30.4898 3.99993L30.9617 1.37675L30.8806 1.39509ZM39.5128 1.10363H36.914C36.1052 1.10363 35.4961 1.32172 35.1426 2.10847L30.1446 13.2086H33.6811L34.388 11.3884L38.704 11.3925C38.8059 11.8185 39.1178 13.2086 39.1178 13.2086H42.2363L39.5128 1.10363ZM17.3877 1.00172H20.7578L18.6497 13.1128H15.2837L17.3877 0.997639V1.00172ZM8.83249 7.67686L9.18176 9.35839L12.4749 1.10363H16.0446L10.741 13.1923H7.17965L4.26901 2.95636C4.22187 2.78758 4.11116 2.64262 3.95923 2.55076C2.91016 2.01947 1.79859 1.61629 0.649414 1.35025L0.695153 1.09547H6.11935C6.85533 1.12401 7.44785 1.35025 7.64536 2.12069L8.83041 7.68298L8.83249 7.67686ZM35.3547 8.91202L36.6978 5.52451C36.6811 5.5612 36.9743 4.8254 37.1448 4.37088L37.3755 5.41649L38.1552 8.90998H35.3526L35.3547 8.91202Z" fill="white"/>
</svg>
